<svg width="33" height="32" viewBox="0 0 33 32" fill="none" xmlns="http://www.w3.org/2000/svg">
<path d="M25.8326 8V21C25.8326 21.2652 25.7272 21.5196 25.5397 21.7071C25.3522 21.8946 25.0978 22 24.8326 22C24.5674 22 24.313 21.8946 24.1255 21.7071C23.9379 21.5196 23.8326 21.2652 23.8326 21V10.4137L9.54009 24.7075C9.35245 24.8951 9.09795 25.0006 8.83259 25.0006C8.56722 25.0006 8.31273 24.8951 8.12509 24.7075C7.93745 24.5199 7.83203 24.2654 7.83203 24C7.83203 23.7346 7.93745 23.4801 8.12509 23.2925L22.4188 9H11.8326C11.5674 9 11.313 8.89464 11.1255 8.70711C10.9379 8.51957 10.8326 8.26522 10.8326 8C10.8326 7.73478 10.9379 7.48043 11.1255 7.29289C11.313 7.10536 11.5674 7 11.8326 7H24.8326C25.0978 7 25.3522 7.10536 25.5397 7.29289C25.7272 7.48043 25.8326 7.73478 25.8326 8Z" fill="#343330"/>
</svg>
