<svg width="32" height="32" viewBox="0 0 32 32" fill="none" xmlns="http://www.w3.org/2000/svg">
<path d="M8 24.0001H10.2857V21.7144H8V24.0001Z" fill="black"/>
<path d="M10.2852 21.7144H12.5709V19.4287H10.2852V21.7144Z" fill="black"/>
<path d="M14.8555 17.1426H17.1412V14.8569H14.8555V17.1426Z" fill="black"/>
<path d="M12.5703 19.4288H14.856V17.1431H12.5703V19.4288Z" fill="black"/>
<path d="M17.1445 14.857H19.4302V12.5713H17.1445V14.857Z" fill="black"/>
<path d="M21.7143 8C17.1429 8 12.5714 8 8 8V10.2857C11.8095 10.2857 15.619 10.2857 19.4286 10.2857V12.5714H21.7143C21.7143 16.381 21.7143 20.1905 21.7143 24H24C24 18.6667 24 13.3333 24 8H21.7143Z" fill="black"/>
</svg>
