<svg width="32" height="32" viewBox="0 0 32 32" fill="none" xmlns="http://www.w3.org/2000/svg">
<path d="M8.22106 20.6667V23.7778H11.3323V20.6667H8.22106Z" fill="#FDFDFC"/>
<path d="M5.10825 17.5557V20.6669H8.21946V17.5557H5.10825Z" fill="#FDFDFC"/>
<path d="M2 14.4443V17.5554H5.1112V14.4443H2Z" fill="#FDFDFC"/>
<path d="M20.6677 23.7778H23.7789V20.6667H20.6677V23.7778Z" fill="#FDFDFC"/>
<path d="M23.7805 20.6669H26.8917V17.5557H23.7805V20.6669Z" fill="#FDFDFC"/>
<path d="M26.8888 14.4443V17.5554H30V14.4443H26.8888Z" fill="#FDFDFC"/>
<path d="M17.5563 20.6667C17.5563 14.4444 17.5563 8.22222 17.5563 2H14.4451C14.4451 9.25926 14.4451 16.5185 14.4451 23.7778H11.3339V26.8889H14.4451V30H17.5563V26.8889H20.6675L20.6677 23.7778H17.5563V20.6667Z" fill="#FDFDFC"/>
</svg>
