<svg width="42" height="43" viewBox="0 0 42 43" fill="none" xmlns="http://www.w3.org/2000/svg">
<path d="M0 0.54248V6.54248H6V0.54248H0Z" fill="#B5B3AD"/>
<path d="M6 6.54248V12.5425H12V6.54248H6Z" fill="#B5B3AD"/>
<path d="M18 18.5425V24.5425H24V18.5425H18Z" fill="#B5B3AD"/>
<path d="M12 12.5425V18.5425H18V12.5425H12Z" fill="#B5B3AD"/>
<path d="M24 24.5425V30.5425H30V24.5425H24Z" fill="#B5B3AD"/>
<path d="M36 0.54248C36 10.5425 36 20.5425 36 30.5425H30V36.5425C20 36.5425 10 36.5425 0 36.5425V42.5425C14 42.5425 28 42.5425 42 42.5425C42 28.5425 42 14.5425 42 0.54248H36Z" fill="#B5B3AD"/>
</svg>
