<svg width="32" height="32" viewBox="0 0 32 32" fill="none" xmlns="http://www.w3.org/2000/svg">
<path d="M2 29.999H6V25.999H2V29.999Z" fill="#FDFDFC"/>
<path d="M6 26H10V22H6V26Z" fill="#FDFDFC"/>
<path d="M13.9961 18.0005H17.9961V14.0005H13.9961V18.0005Z" fill="#FDFDFC"/>
<path d="M10 21.9995H14V17.9995H10V21.9995Z" fill="#FDFDFC"/>
<path d="M18.0039 14H22.0039V10H18.0039V14Z" fill="#FDFDFC"/>
<path d="M26 2C18 2 10 2 2 2V6C8.66667 6 15.3333 6 22 6V10H26C26 16.6667 26 23.3333 26 30H30C30 20.6667 30 11.3333 30 2H26Z" fill="#FDFDFC"/>
</svg>
