<svg width="32" height="32" viewBox="0 0 32 32" fill="none" xmlns="http://www.w3.org/2000/svg">
<path d="M25.7081 14.7073C25.6152 14.8003 25.5049 14.874 25.3835 14.9244C25.2621 14.9747 25.132 15.0006 25.0006 15.0006C24.8691 15.0006 24.739 14.9747 24.6176 14.9244C24.4962 14.874 24.3859 14.8003 24.2931 14.7073L17.0006 7.41356V26.9998C17.0006 27.265 16.8952 27.5194 16.7077 27.7069C16.5201 27.8945 16.2658 27.9998 16.0006 27.9998C15.7353 27.9998 15.481 27.8945 15.2934 27.7069C15.1059 27.5194 15.0006 27.265 15.0006 26.9998V7.41356L7.70806 14.7073C7.52042 14.895 7.26592 15.0004 7.00056 15.0004C6.73519 15.0004 6.4807 14.895 6.29306 14.7073C6.10542 14.5197 6 14.2652 6 13.9998C6 13.7344 6.10542 13.48 6.29306 13.2923L15.2931 4.29231C15.3859 4.19933 15.4962 4.12557 15.6176 4.07525C15.739 4.02493 15.8691 3.99902 16.0006 3.99902C16.132 3.99902 16.2621 4.02493 16.3835 4.07525C16.5049 4.12557 16.6152 4.19933 16.7081 4.29231L25.7081 13.2923C25.801 13.3852 25.8748 13.4955 25.9251 13.6169C25.9754 13.7383 26.0013 13.8684 26.0013 13.9998C26.0013 14.1312 25.9754 14.2614 25.9251 14.3828C25.8748 14.5041 25.801 14.6144 25.7081 14.7073Z" fill="#FDFDFC"/>
</svg>
