<svg width="33" height="32" viewBox="0 0 33 32" fill="none" xmlns="http://www.w3.org/2000/svg">
<path d="M20.832 10C20.832 9.73478 20.9374 9.48043 21.1249 9.29289C21.3125 9.10536 21.5668 9 21.832 9H29.832C30.0972 9 30.3516 9.10536 30.5391 9.29289C30.7267 9.48043 30.832 9.73478 30.832 10C30.832 10.2652 30.7267 10.5196 30.5391 10.7071C30.3516 10.8946 30.0972 11 29.832 11H21.832C21.5668 11 21.3125 10.8946 21.1249 10.7071C20.9374 10.5196 20.832 10.2652 20.832 10ZM17.832 19.75C17.832 21.1424 17.2789 22.4777 16.2943 23.4623C15.3098 24.4469 13.9744 25 12.582 25H4.83203C4.56681 25 4.31246 24.8946 4.12492 24.7071C3.93739 24.5196 3.83203 24.2652 3.83203 24V8C3.83203 7.73478 3.93739 7.48043 4.12492 7.29289C4.31246 7.10536 4.56681 7 4.83203 7H12.082C13.0385 7.00102 13.9723 7.29074 14.7614 7.83125C15.5504 8.37176 16.1579 9.13788 16.5044 10.0293C16.8508 10.9208 16.9201 11.8961 16.7031 12.8276C16.4861 13.7591 15.993 14.6034 15.2883 15.25C16.0645 15.7169 16.7066 16.3767 17.1524 17.1652C17.5981 17.9538 17.8322 18.8442 17.832 19.75ZM5.83203 14.5H12.082C12.8114 14.5 13.5108 14.2103 14.0266 13.6945C14.5423 13.1788 14.832 12.4793 14.832 11.75C14.832 11.0207 14.5423 10.3212 14.0266 9.80546C13.5108 9.28973 12.8114 9 12.082 9H5.83203V14.5ZM15.832 19.75C15.832 19.3232 15.748 18.9006 15.5846 18.5063C15.4213 18.112 15.1819 17.7537 14.8801 17.4519C14.5783 17.1501 14.2201 16.9107 13.8258 16.7474C13.4314 16.5841 13.0088 16.5 12.582 16.5H5.83203V23H12.582C13.0088 23 13.4314 22.9159 13.8258 22.7526C14.2201 22.5893 14.5783 22.3499 14.8801 22.0481C15.1819 21.7463 15.4213 21.388 15.5846 20.9937C15.748 20.5994 15.832 20.1768 15.832 19.75ZM31.832 19C31.832 19.2652 31.7267 19.5196 31.5391 19.7071C31.3516 19.8946 31.0972 20 30.832 20H21.957C22.1453 20.7297 22.5358 21.3913 23.0837 21.9088C23.6315 22.4262 24.3144 22.7783 25.0536 22.9246C25.7928 23.071 26.5584 23.0055 27.262 22.7357C27.9657 22.466 28.5788 22.003 29.0308 21.4C29.1097 21.2949 29.2085 21.2065 29.3215 21.1396C29.4346 21.0727 29.5597 21.0287 29.6898 21.0102C29.8199 20.9917 29.9523 20.999 30.0795 21.0317C30.2068 21.0643 30.3263 21.1217 30.4314 21.2006C30.5365 21.2795 30.625 21.3783 30.6918 21.4914C30.7587 21.6044 30.8027 21.7296 30.8212 21.8596C30.8397 21.9897 30.8324 22.1221 30.7997 22.2494C30.7671 22.3766 30.7097 22.4962 30.6308 22.6012C29.7756 23.7407 28.5429 24.5386 27.1532 24.8523C25.7636 25.166 24.3076 24.975 23.0459 24.3135C21.7842 23.652 20.799 22.5631 20.2667 21.2416C19.7343 19.9202 19.6895 18.4525 20.1403 17.101C20.5911 15.7496 21.5081 14.6027 22.7271 13.8654C23.9462 13.1282 25.3877 12.8488 26.7939 13.0772C28.2002 13.3056 29.4792 14.0269 30.4023 15.112C31.3253 16.1972 31.8321 17.5754 31.832 19ZM29.707 18C29.4867 17.1396 28.9863 16.377 28.2847 15.8324C27.5831 15.2878 26.7202 14.9922 25.832 14.9922C24.9439 14.9922 24.0809 15.2878 23.3793 15.8324C22.6777 16.377 22.1773 17.1396 21.957 18H29.707Z" fill="#21201C"/>
</svg>
