<svg width="981" height="102" viewBox="0 0 981 102" fill="none" xmlns="http://www.w3.org/2000/svg">
<path d="M20.5 102V81.75H0.25V21H20.5V0.75H81.25V21H101.5V41.25H61V21H40.75V81.75H61V61.5H101.5V81.75H81.25V102H20.5Z" fill="#EBFF00"/>
<path d="M117.7 102V0.75H158.2V41.25H178.45V0.75H218.95V102H178.45V61.5H158.2V102H117.7Z" fill="#EBFF00"/>
<path d="M235.15 102V21H255.4V0.75H316.15V21H336.4V102H295.9V61.5H275.65V102H235.15ZM275.65 41.25H295.9V21.81H275.65V41.25Z" fill="#EBFF00"/>
<path d="M352.6 102V0.75H393.1V81.75H433.6V102H352.6Z" fill="#EBFF00"/>
<path d="M449.8 102V0.75H490.3V81.75H530.8V102H449.8Z" fill="#EBFF00"/>
<path d="M547 102V0.75H628V21H587.5V41.25H628V61.5H587.5V81.75H628V102H547Z" fill="#EBFF00"/>
<path d="M644.2 102V0.75H684.7V21H704.95V41.25H725.2V0.75H765.7V102H725.2V81.75H704.95V61.5H684.7V102H644.2Z" fill="#EBFF00"/>
<path d="M802.15 102V81.75H781.9V21H802.15V0.75H883.15V21H822.4V81.75H842.65V41.25H883.15V81.75H862.9V102H802.15Z" fill="#EBFF00"/>
<path d="M899.35 102V0.75H980.35V21H939.85V41.25H980.35V61.5H939.85V81.75H980.35V102H899.35Z" fill="#EBFF00"/>
</svg>
