<svg width="533" height="228" viewBox="0 0 533 228" fill="none" xmlns="http://www.w3.org/2000/svg">
<path d="M0 227.5V0H136.5V45.5H182V182H136.5V227.5H0ZM45.5 182H134.68V45.5H45.5V182Z" fill="black"/>
<path d="M218.4 227.5V45.5H263.9V0H354.9V45.5H400.4V227.5H354.9V136.5H263.9V227.5H218.4ZM263.9 91H354.9V47.32H263.9V91Z" fill="black"/>
<path d="M440.789 47.9642L441.525 45.0202H445.573C469.493 45.0202 486.789 26.9882 500.037 0.492188H503.349L495.621 45.0202H532.053L531.317 47.9642H494.885L472.805 174.556C471.701 181.916 470.965 188.54 470.965 194.06C470.965 210.988 477.221 219.084 489.365 219.084C497.461 219.084 502.981 216.14 508.501 209.148L510.341 210.252C501.877 222.396 488.997 227.18 473.541 227.18C450.725 227.18 437.109 213.932 437.109 188.908C437.109 184.124 437.477 178.972 438.213 173.82L460.293 47.9642H440.789Z" fill="black"/>
</svg>
