<svg width="579" height="218" viewBox="0 0 579 218" fill="none" xmlns="http://www.w3.org/2000/svg">
<path d="M411.293 217.715V212.937L431.305 211.742L439.369 207.859L488.054 10.1311L433.435 7.61953L418.106 33.5289H412.431L420.253 0.573242H425.331L439.967 2.66403H557.647L573.179 0.573242H578.555V33.5289H572.88L564.216 7.61953L508.663 10.1311L459.978 207.859L467.744 211.742L487.756 212.937V217.715H411.293Z" fill="black"/>
<path d="M183.223 217.716V213.534L199.65 209.353L310.461 21.4812L307.176 5.3523V0.87207H326.889L370.198 209.353L386.327 213.534V217.716H317.032V212.937L348.394 210.249V203.976L335.551 141.85H248.933L212.494 203.976V210.249L240.868 212.937V217.716H183.223ZM253.413 134.383H334.057L312.851 33.4285L253.413 134.383Z" fill="black"/>
<path d="M49.2574 2.66406H136.174C188.443 2.66406 216.818 34.0257 216.818 85.3991C216.818 131.994 194.417 174.108 153.498 199.197C132.889 211.443 110.189 217.716 84.8006 217.716H0.273438V212.937L16.9997 211.742L23.5707 207.859L72.2559 12.5206L65.6849 8.63771L49.2574 7.44298V2.66406ZM43.2837 210.846H84.2032C105.708 210.846 125.123 204.872 142.148 192.925C159.471 180.679 172.613 164.849 181.275 146.032C190.534 126.916 195.014 106.307 195.014 83.9057C195.014 37.3112 174.704 9.53376 132.889 9.53376H93.4624L43.2837 210.846Z" fill="black"/>
</svg>
