<svg width="1406" height="148" viewBox="0 0 1406 148" fill="none" xmlns="http://www.w3.org/2000/svg">
<path d="M1299.94 145H1267.99V2.29004H1302.07L1353.19 69.811L1372.79 99.844H1375.13L1373.64 71.089V2.29004H1405.59V145H1371.51L1318.9 76.84L1300.79 50.002H1298.66L1299.94 76.201V145Z" fill="#21201C"/>
<path d="M1253.56 145H1132.79V2.29004H1253.56V31.045H1164.74V58.948H1250.36V87.49H1164.74V116.245H1253.56V145Z" fill="#21201C"/>
<path d="M1062.38 145H1030.22V97.714L966.957 2.29004H1006.36L1033.63 44.038L1045.55 63.208H1047.9L1059.83 44.038L1087.09 2.29004H1126.71L1062.38 97.927V145Z" fill="#21201C"/>
<path d="M891.659 147.13C845.225 147.13 821.582 123.7 821.582 85.36V2.29004H853.532V83.017C853.532 107.299 862.691 116.032 891.659 116.032C920.84 116.032 929.786 107.299 929.786 83.017V2.29004H961.736V85.36C961.736 123.7 938.306 147.13 891.659 147.13Z" fill="#21201C"/>
<path d="M725.005 147.13C681.34 147.13 654.502 118.162 654.502 73.645C654.502 29.128 684.748 0.160034 733.738 0.160034C778.468 0.160034 806.797 21.034 806.797 55.327V57.031H771.226V55.327C771.226 38.713 760.363 30.832 732.886 30.832C700.51 30.832 688.369 41.908 688.369 73.645C688.369 105.382 700.084 116.458 731.395 116.458C764.197 116.458 774.208 111.346 775.06 93.241H726.709V69.598H807.01V145H777.403V114.328H775.699C770.8 133.072 755.89 147.13 725.005 147.13Z" fill="#21201C"/>
<path d="M535.096 145H503.146V2.29004H537.226L588.346 69.811L607.942 99.844H610.285L608.794 71.089V2.29004H640.744V145H606.664L554.053 76.84L535.948 50.002H533.818L535.096 76.201V145Z" fill="#21201C"/>
<path d="M405.79 145H373.84V31.045H320.803V2.29004H458.827V31.045H405.79V145Z" fill="#21201C"/>
<path d="M183.845 145H148.061L210.47 2.29004H256.052L318.887 145H282.251L268.832 113.476H197.477L183.845 145ZM223.25 53.623L209.831 84.721H256.478L243.059 53.623L234.326 31.471H231.983L223.25 53.623Z" fill="#21201C"/>
<path d="M69.0236 145H0.224609V2.29004H69.0236C114.819 2.29004 143.787 28.915 143.787 73.645C143.787 118.375 114.819 145 69.0236 145ZM69.0236 31.045H32.1746V116.245H69.0236C97.9916 116.245 109.707 107.938 109.707 73.645C109.707 39.352 97.9916 31.045 69.0236 31.045Z" fill="#21201C"/>
</svg>
