<svg width="49" height="25" viewBox="0 0 49 25" fill="none" xmlns="http://www.w3.org/2000/svg">
<path d="M47.0464 18.3036C47.0464 19.3574 46.6041 20.1315 45.7194 20.6259C44.8477 21.1333 43.4816 21.387 41.6211 21.387C40.7104 21.387 39.9493 21.3285 39.3378 21.2114C38.7263 21.1073 38.2319 20.9512 37.8546 20.743C37.4904 20.5349 37.2302 20.2812 37.074 19.9819C36.9179 19.6957 36.8398 19.3704 36.8398 19.0061C36.8398 18.4467 37.0025 18.0174 37.3277 17.7181C37.653 17.4189 38.1083 17.1977 38.6938 17.0546V16.8985C38.3035 16.7684 37.9913 16.5862 37.7571 16.352C37.5359 16.1178 37.4253 15.7926 37.4253 15.3763C37.4253 14.8819 37.5879 14.5111 37.9132 14.2639C38.2515 14.0167 38.6938 13.828 39.2402 13.6979V13.6003C38.6418 13.3141 38.1734 12.9108 37.8351 12.3904C37.4969 11.87 37.3277 11.2389 37.3277 10.4974C37.3277 9.93791 37.4253 9.44352 37.6205 9.01417C37.8286 8.57182 38.1149 8.20103 38.4791 7.90179C38.8564 7.58954 39.3053 7.35535 39.8257 7.19923C40.3461 7.03009 40.9251 6.94552 41.5626 6.94552C42.2391 6.94552 42.8506 7.0366 43.397 7.21874V6.7894C43.397 6.39909 43.5206 6.07383 43.7678 5.81362C44.028 5.55341 44.3858 5.42331 44.8412 5.42331H46.6561V7.2968H44.2752V7.62857C44.7696 7.92781 45.1469 8.31812 45.4071 8.7995C45.6803 9.26788 45.8169 9.83383 45.8169 10.4974C45.8169 11.0568 45.7129 11.5577 45.5047 12.0001C45.3095 12.4424 45.0233 12.8132 44.646 13.1124C44.2817 13.4117 43.8329 13.6459 43.2995 13.815C42.779 13.9711 42.2001 14.0492 41.5626 14.0492C41.3024 14.0492 41.0487 14.0427 40.8015 14.0297C40.5673 14.0037 40.3396 13.9581 40.1184 13.8931C39.9363 13.9581 39.7607 14.0622 39.5915 14.2053C39.4224 14.3484 39.3378 14.5371 39.3378 14.7713C39.3378 15.0835 39.4874 15.2787 39.7867 15.3567C40.0859 15.4218 40.4437 15.4543 40.86 15.4543H43.1433C43.8459 15.4543 44.4444 15.5259 44.9388 15.669C45.4331 15.7991 45.8365 15.9942 46.1487 16.2545C46.461 16.5016 46.6886 16.8009 46.8317 17.1522C46.9749 17.5034 47.0464 17.8873 47.0464 18.3036ZM44.7046 18.4792C44.7046 18.18 44.581 17.9393 44.3338 17.7571C44.0996 17.588 43.6572 17.5034 43.0067 17.5034H39.533C39.1427 17.7246 38.9475 18.0499 38.9475 18.4792C38.9475 18.8305 39.0906 19.1232 39.3768 19.3574C39.6761 19.5916 40.177 19.7087 40.8795 19.7087H42.4993C43.9695 19.7087 44.7046 19.2989 44.7046 18.4792ZM41.5626 12.4099C42.2001 12.4099 42.6685 12.2603 42.9677 11.961C43.2669 11.6488 43.4165 11.2455 43.4165 10.7511V10.2437C43.4165 9.74926 43.2669 9.35244 42.9677 9.05321C42.6685 8.74096 42.2001 8.58483 41.5626 8.58483C40.9381 8.58483 40.4762 8.74096 40.177 9.05321C39.8777 9.35244 39.7281 9.74926 39.7281 10.2437V10.7511C39.7281 11.2455 39.8777 11.6488 40.177 11.961C40.4762 12.2603 40.9381 12.4099 41.5626 12.4099Z" fill="#EEEFE7"/>
<path d="M27.791 7.4724H27.5959V17.2497H25.4102V3.62784H28.5521L32.1235 13.4051H32.3186V3.62784H34.5043V17.2497H31.3624L27.791 7.4724Z" fill="#EEEFE7"/>
<path d="M21.9658 17.2497C21.3543 17.2497 20.8794 17.1001 20.5412 16.8009C20.2159 16.4886 20.0208 16.0593 19.9557 15.5128H19.8581C19.676 16.1373 19.3182 16.6252 18.7848 16.9765C18.2514 17.3148 17.5943 17.4839 16.8137 17.4839C15.7989 17.4839 14.9923 17.2172 14.3938 16.6838C13.7953 16.1503 13.4961 15.4087 13.4961 14.459C13.4961 12.4294 14.9858 11.4146 17.9651 11.4146H19.741V10.751C19.741 10.1135 19.5849 9.63214 19.2727 9.30688C18.9604 8.98162 18.453 8.81899 17.7505 8.81899C17.113 8.81899 16.599 8.94259 16.2087 9.18979C15.8184 9.43698 15.4867 9.75574 15.2135 10.146L13.7888 8.93608C14.1011 8.37664 14.602 7.90826 15.2915 7.53096C15.9941 7.14065 16.8983 6.9455 18.0042 6.9455C19.3312 6.9455 20.3655 7.25774 21.1071 7.88224C21.8617 8.49373 22.239 9.41096 22.239 10.6339V15.3762H23.4295V17.2497H21.9658ZM17.6529 15.7665C18.2514 15.7665 18.7457 15.6299 19.1361 15.3567C19.5394 15.0705 19.741 14.6867 19.741 14.2053V12.8587H18.0237C16.6576 12.8587 15.9746 13.2881 15.9746 14.1467V14.5371C15.9746 14.9404 16.1242 15.2461 16.4234 15.4543C16.7226 15.6624 17.1325 15.7665 17.6529 15.7665Z" fill="#EEEFE7"/>
<path d="M2.125 3.62784H6.35985C8.12925 3.62784 9.44329 4.2133 10.302 5.38424C11.1737 6.55517 11.6095 8.24002 11.6095 10.4388C11.6095 12.6505 11.1737 14.3419 10.302 15.5128C9.44329 16.6707 8.12925 17.2497 6.35985 17.2497H2.125V3.62784ZM6.18421 15.2006C7.12095 15.2006 7.8105 14.8948 8.25285 14.2833C8.70821 13.6719 8.93589 12.7806 8.93589 11.6097V9.24832C8.93589 8.0904 8.70821 7.20569 8.25285 6.5942C7.8105 5.98272 7.12095 5.67697 6.18421 5.67697H4.64249V15.2006H6.18421Z" fill="#EEEFE7"/>
<path fill-rule="evenodd" clip-rule="evenodd" d="M2.20033 0.5L4.64514 1.81612L2.20033 3.13224V2.04408H0.488962V5.91937H0V1.58816H2.20033V0.5Z" fill="#EEEFE7"/>
<path fill-rule="evenodd" clip-rule="evenodd" d="M47.053 24.5001L44.9025 22.9959L47.053 21.4918V22.7354H48.3433V18.3065H48.7734V23.2564H47.053V24.5001Z" fill="#EEEFE7"/>
</svg>
