<svg width="49" height="24" viewBox="0 0 49 24" fill="none" xmlns="http://www.w3.org/2000/svg">
<path d="M47.0464 17.8036C47.0464 18.8574 46.6041 19.6315 45.7194 20.1259C44.8477 20.6333 43.4816 20.887 41.6211 20.887C40.7104 20.887 39.9493 20.8285 39.3378 20.7114C38.7263 20.6073 38.2319 20.4512 37.8546 20.243C37.4904 20.0349 37.2302 19.7812 37.074 19.4819C36.9179 19.1957 36.8398 18.8704 36.8398 18.5061C36.8398 17.9467 37.0025 17.5174 37.3277 17.2181C37.653 16.9189 38.1083 16.6977 38.6938 16.5546V16.3985C38.3035 16.2684 37.9913 16.0862 37.7571 15.852C37.5359 15.6178 37.4253 15.2926 37.4253 14.8763C37.4253 14.3819 37.5879 14.0111 37.9132 13.7639C38.2515 13.5167 38.6938 13.328 39.2402 13.1979V13.1003C38.6418 12.8141 38.1734 12.4108 37.8351 11.8904C37.4969 11.37 37.3277 10.7389 37.3277 9.99736C37.3277 9.43791 37.4253 8.94352 37.6205 8.51417C37.8286 8.07182 38.1149 7.70103 38.4791 7.40179C38.8564 7.08954 39.3053 6.85535 39.8257 6.69923C40.3461 6.53009 40.9251 6.44552 41.5626 6.44552C42.2391 6.44552 42.8506 6.5366 43.397 6.71874V6.2894C43.397 5.89909 43.5206 5.57383 43.7678 5.31362C44.028 5.05341 44.3858 4.92331 44.8412 4.92331H46.6561V6.7968H44.2752V7.12857C44.7696 7.42781 45.1469 7.81812 45.4071 8.2995C45.6803 8.76788 45.8169 9.33383 45.8169 9.99736C45.8169 10.5568 45.7129 11.0577 45.5047 11.5001C45.3095 11.9424 45.0233 12.3132 44.646 12.6124C44.2817 12.9117 43.8329 13.1459 43.2995 13.315C42.779 13.4711 42.2001 13.5492 41.5626 13.5492C41.3024 13.5492 41.0487 13.5427 40.8015 13.5297C40.5673 13.5037 40.3396 13.4581 40.1184 13.3931C39.9363 13.4581 39.7607 13.5622 39.5915 13.7053C39.4224 13.8484 39.3378 14.0371 39.3378 14.2713C39.3378 14.5835 39.4874 14.7787 39.7867 14.8567C40.0859 14.9218 40.4437 14.9543 40.86 14.9543H43.1433C43.8459 14.9543 44.4444 15.0259 44.9388 15.169C45.4331 15.2991 45.8365 15.4942 46.1487 15.7545C46.461 16.0016 46.6886 16.3009 46.8317 16.6522C46.9749 17.0034 47.0464 17.3873 47.0464 17.8036ZM44.7046 17.9792C44.7046 17.68 44.581 17.4393 44.3338 17.2571C44.0996 17.088 43.6572 17.0034 43.0067 17.0034H39.533C39.1427 17.2246 38.9475 17.5499 38.9475 17.9792C38.9475 18.3305 39.0906 18.6232 39.3768 18.8574C39.6761 19.0916 40.177 19.2087 40.8795 19.2087H42.4993C43.9695 19.2087 44.7046 18.7989 44.7046 17.9792ZM41.5626 11.9099C42.2001 11.9099 42.6685 11.7603 42.9677 11.461C43.2669 11.1488 43.4165 10.7455 43.4165 10.2511V9.74365C43.4165 9.24926 43.2669 8.85244 42.9677 8.55321C42.6685 8.24096 42.2001 8.08483 41.5626 8.08483C40.9381 8.08483 40.4762 8.24096 40.177 8.55321C39.8777 8.85244 39.7281 9.24926 39.7281 9.74365V10.2511C39.7281 10.7455 39.8777 11.1488 40.177 11.461C40.4762 11.7603 40.9381 11.9099 41.5626 11.9099Z" fill="#21201C"/>
<path d="M27.791 6.9724H27.5959V16.7497H25.4102V3.12784H28.5521L32.1235 12.9051H32.3186V3.12784H34.5043V16.7497H31.3624L27.791 6.9724Z" fill="#21201C"/>
<path d="M21.9658 16.7497C21.3543 16.7497 20.8794 16.6001 20.5412 16.3009C20.2159 15.9886 20.0208 15.5593 19.9557 15.0128H19.8581C19.676 15.6373 19.3182 16.1252 18.7848 16.4765C18.2514 16.8148 17.5943 16.9839 16.8137 16.9839C15.7989 16.9839 14.9923 16.7172 14.3938 16.1838C13.7953 15.6503 13.4961 14.9087 13.4961 13.959C13.4961 11.9294 14.9858 10.9146 17.9651 10.9146H19.741V10.251C19.741 9.61352 19.5849 9.13214 19.2727 8.80688C18.9604 8.48162 18.453 8.31899 17.7505 8.31899C17.113 8.31899 16.599 8.44259 16.2087 8.68979C15.8184 8.93698 15.4867 9.25574 15.2135 9.64605L13.7888 8.43608C14.1011 7.87664 14.602 7.40826 15.2915 7.03096C15.9941 6.64065 16.8983 6.4455 18.0042 6.4455C19.3312 6.4455 20.3655 6.75774 21.1071 7.38224C21.8617 7.99373 22.239 8.91096 22.239 10.1339V14.8762H23.4295V16.7497H21.9658ZM17.6529 15.2665C18.2514 15.2665 18.7457 15.1299 19.1361 14.8567C19.5394 14.5705 19.741 14.1867 19.741 13.7053V12.3587H18.0237C16.6576 12.3587 15.9746 12.7881 15.9746 13.6467V14.0371C15.9746 14.4404 16.1242 14.7461 16.4234 14.9543C16.7226 15.1624 17.1325 15.2665 17.6529 15.2665Z" fill="#21201C"/>
<path d="M2.125 3.12784H6.35985C8.12925 3.12784 9.44329 3.7133 10.302 4.88424C11.1737 6.05517 11.6095 7.74002 11.6095 9.93877C11.6095 12.1505 11.1737 13.8419 10.302 15.0128C9.44329 16.1707 8.12925 16.7497 6.35985 16.7497H2.125V3.12784ZM6.18421 14.7006C7.12095 14.7006 7.8105 14.3948 8.25285 13.7833C8.70821 13.1719 8.93589 12.2806 8.93589 11.1097V8.74832C8.93589 7.5904 8.70821 6.70569 8.25285 6.0942C7.8105 5.48272 7.12095 5.17697 6.18421 5.17697H4.64249V14.7006H6.18421Z" fill="#21201C"/>
<path fill-rule="evenodd" clip-rule="evenodd" d="M2.20033 0L4.64514 1.31612L2.20033 2.63224V1.54408H0.488962V5.41937H0V1.08816H2.20033V0Z" fill="#21201C"/>
<path fill-rule="evenodd" clip-rule="evenodd" d="M47.053 24.0001L44.9025 22.4959L47.053 20.9918V22.2354H48.3433V17.8065H48.7734V22.7564H47.053V24.0001Z" fill="#21201C"/>
</svg>
