<svg width="50" height="25" viewBox="0 0 50 25" fill="none" xmlns="http://www.w3.org/2000/svg">
<path d="M47.7144 18.0737C47.7144 19.1275 47.272 19.9017 46.3873 20.396C45.5156 20.9035 44.1496 21.1572 42.2891 21.1572C41.3784 21.1572 40.6173 21.0986 40.0058 20.9815C39.3943 20.8774 38.8999 20.7213 38.5226 20.5131C38.1583 20.305 37.8981 20.0513 37.742 19.752C37.5859 19.4658 37.5078 19.1405 37.5078 18.7763C37.5078 18.2168 37.6704 17.7875 37.9957 17.4882C38.321 17.189 38.7763 16.9678 39.3618 16.8247V16.6686C38.9715 16.5385 38.6592 16.3563 38.425 16.1221C38.2039 15.888 38.0933 15.5627 38.0933 15.1464C38.0933 14.652 38.2559 14.2812 38.5812 14.034C38.9194 13.7868 39.3618 13.5981 39.9082 13.468V13.3704C39.3097 13.0842 38.8414 12.6809 38.5031 12.1605C38.1648 11.6401 37.9957 11.0091 37.9957 10.2675C37.9957 9.70802 38.0933 9.21363 38.2884 8.78428C38.4966 8.34193 38.7828 7.97114 39.1471 7.6719C39.5244 7.35965 39.9733 7.12546 40.4937 6.96934C41.0141 6.8002 41.593 6.71564 42.2305 6.71564C42.9071 6.71564 43.5186 6.80671 44.065 6.98885V6.55951C44.065 6.1692 44.1886 5.84394 44.4358 5.58373C44.696 5.32352 45.0538 5.19342 45.5091 5.19342H47.3241V7.06691H44.9432V7.39868C45.4376 7.69792 45.8149 8.08823 46.0751 8.56961C46.3483 9.03799 46.4849 9.60394 46.4849 10.2675C46.4849 10.8269 46.3808 11.3278 46.1727 11.7702C45.9775 12.2125 45.6913 12.5833 45.314 12.8826C44.9497 13.1818 44.5008 13.416 43.9674 13.5851C43.447 13.7412 42.8681 13.8193 42.2305 13.8193C41.9703 13.8193 41.7166 13.8128 41.4694 13.7998C41.2353 13.7738 41.0076 13.7282 40.7864 13.6632C40.6043 13.7282 40.4286 13.8323 40.2595 13.9754C40.0904 14.1185 40.0058 14.3072 40.0058 14.5414C40.0058 14.8536 40.1554 15.0488 40.4546 15.1268C40.7539 15.1919 41.1117 15.2244 41.528 15.2244H43.8113C44.5139 15.2244 45.1123 15.296 45.6067 15.4391C46.1011 15.5692 46.5044 15.7644 46.8167 16.0246C47.1289 16.2718 47.3566 16.571 47.4997 16.9223C47.6428 17.2736 47.7144 17.6574 47.7144 18.0737ZM45.3725 18.2493C45.3725 17.9501 45.2489 17.7094 45.0017 17.5273C44.7676 17.3581 44.3252 17.2736 43.6747 17.2736H40.2009C39.8106 17.4947 39.6155 17.82 39.6155 18.2493C39.6155 18.6006 39.7586 18.8934 40.0448 19.1275C40.3441 19.3617 40.845 19.4788 41.5475 19.4788H43.1673C44.6375 19.4788 45.3725 19.069 45.3725 18.2493ZM42.2305 12.18C42.8681 12.18 43.3364 12.0304 43.6357 11.7311C43.9349 11.4189 44.0845 11.0156 44.0845 10.5212V10.0138C44.0845 9.51937 43.9349 9.12256 43.6357 8.82332C43.3364 8.51107 42.8681 8.35494 42.2305 8.35494C41.6061 8.35494 41.1442 8.51107 40.845 8.82332C40.5457 9.12256 40.3961 9.51937 40.3961 10.0138V10.5212C40.3961 11.0156 40.5457 11.4189 40.845 11.7311C41.1442 12.0304 41.6061 12.18 42.2305 12.18Z" fill="#21201C"/>
<path d="M28.459 7.24252H28.2639V17.0198H26.0781V3.39795H29.2201L32.7914 13.1752H32.9866V3.39795H35.1723V17.0198H32.0303L28.459 7.24252Z" fill="#21201C"/>
<path d="M22.6338 17.0198C22.0223 17.0198 21.5474 16.8702 21.2091 16.5709C20.8839 16.2587 20.6887 15.8293 20.6237 15.2829H20.5261C20.344 15.9074 19.9862 16.3953 19.4527 16.7466C18.9193 17.0848 18.2623 17.254 17.4817 17.254C16.4669 17.254 15.6602 16.9873 15.0618 16.4538C14.4633 15.9204 14.1641 15.1788 14.1641 14.2291C14.1641 12.1995 15.6537 11.1846 18.6331 11.1846H20.409V10.5211C20.409 9.8836 20.2529 9.40222 19.9406 9.07696C19.6284 8.7517 19.121 8.58907 18.4184 8.58907C17.7809 8.58907 17.267 8.71267 16.8767 8.95987C16.4864 9.20706 16.1546 9.52582 15.8814 9.91613L14.4568 8.70616C14.769 8.14672 15.2699 7.67834 15.9595 7.30104C16.662 6.91073 17.5663 6.71558 18.6721 6.71558C19.9992 6.71558 21.0335 7.02782 21.7751 7.65232C22.5297 8.26381 22.907 9.18104 22.907 10.404V15.1463H24.0974V17.0198H22.6338ZM18.3209 15.5366C18.9193 15.5366 19.4137 15.4 19.804 15.1268C20.2073 14.8406 20.409 14.4568 20.409 13.9754V12.6288H18.6916C17.3256 12.6288 16.6425 13.0581 16.6425 13.9168V14.3071C16.6425 14.7105 16.7921 15.0162 17.0914 15.2244C17.3906 15.4325 17.8004 15.5366 18.3209 15.5366Z" fill="#21201C"/>
<path d="M2.79297 3.39795H7.02782C8.79722 3.39795 10.1113 3.98342 10.9699 5.15435C11.8416 6.32528 12.2775 8.01013 12.2775 10.2089C12.2775 12.4206 11.8416 14.112 10.9699 15.2829C10.1113 16.4409 8.79722 17.0198 7.02782 17.0198H2.79297V3.39795ZM6.85218 14.9707C7.78892 14.9707 8.47847 14.6649 8.92082 14.0535C9.37618 13.442 9.60386 12.5508 9.60386 11.3798V9.01843C9.60386 7.86051 9.37618 6.9758 8.92082 6.36432C8.47847 5.75283 7.78892 5.44708 6.85218 5.44708H5.31046V14.9707H6.85218Z" fill="#21201C"/>
<path fill-rule="evenodd" clip-rule="evenodd" d="M2.8683 0.270142L5.31311 1.58626L2.8683 2.90238V1.81422H1.15693V5.68951H0.667969V1.3583H2.8683V0.270142Z" fill="#21201C"/>
<path fill-rule="evenodd" clip-rule="evenodd" d="M47.721 24.2702L45.5705 22.7661L47.721 21.2619V22.5055H49.0113V18.0766H49.4414V23.0266H47.721V24.2702Z" fill="#21201C"/>
</svg>
