<svg width="46" height="46" viewBox="0 0 46 46" fill="none" xmlns="http://www.w3.org/2000/svg">
<g id="devicon-plain:aftereffects" clip-path="url(#clip0_201_1522)">
<path id="Vector" d="M31.2641 18.8313C28.5687 19.1547 28.5687 22.1375 28.5687 22.1375H33.9234C33.9594 22.1375 34.2109 18.8313 31.2641 18.8313ZM13.7266 22.6766H18.3266L16.0266 13.9078L13.7266 22.6766Z" fill="#F4F1E5"/>
<path id="Vector_2" d="M0 0V46H46V0H0ZM20.6641 31.8406L19.0469 26.0547H13.0094L11.4281 31.8406H8.05L13.8 12.1109V10.7453H18.1844L24.4016 31.8406H20.6641ZM37.1953 24.7969H28.5703C29.2531 31.6969 36.1891 28.3906 36.1891 28.3906V31.2656C36.1891 31.2656 35.7219 32.2 30.8703 32.2C26.0188 32.2 25.0125 25.6234 25.0125 25.6234V23.9344C25.0125 23.9344 25.4797 16.0281 31.2297 16.0281C36.9797 16.0281 37.1594 21.275 37.1594 21.275V24.7969H37.1953Z" fill="#F4F1E5"/>
</g>
<defs>
<clipPath id="clip0_201_1522">
<rect width="46" height="46" fill="white"/>
</clipPath>
</defs>
</svg>
