<svg width="33" height="32" viewBox="0 0 33 32" fill="none" xmlns="http://www.w3.org/2000/svg">
<path d="M16.832 3C14.2609 3 11.7475 3.76244 9.60962 5.1909C7.47178 6.61935 5.80554 8.64968 4.8216 11.0251C3.83766 13.4006 3.58022 16.0144 4.08183 18.5362C4.58344 21.0579 5.82157 23.3743 7.63965 25.1924C9.45773 27.0105 11.7741 28.2486 14.2959 28.7502C16.8176 29.2518 19.4315 28.9944 21.8069 28.0104C24.1824 27.0265 26.2127 25.3603 27.6411 23.2224C29.0696 21.0846 29.832 18.5712 29.832 16C29.8284 12.5533 28.4576 9.24882 26.0204 6.81163C23.5832 4.37445 20.2787 3.00364 16.832 3ZM17.832 26.9538V19H20.832C21.0973 19 21.3516 18.8946 21.5391 18.7071C21.7267 18.5196 21.832 18.2652 21.832 18C21.832 17.7348 21.7267 17.4804 21.5391 17.2929C21.3516 17.1054 21.0973 17 20.832 17H17.832V14C17.832 13.4696 18.0428 12.9609 18.4178 12.5858C18.7929 12.2107 19.3016 12 19.832 12H21.832C22.0973 12 22.3516 11.8946 22.5391 11.7071C22.7267 11.5196 22.832 11.2652 22.832 11C22.832 10.7348 22.7267 10.4804 22.5391 10.2929C22.3516 10.1054 22.0973 10 21.832 10H19.832C18.7712 10 17.7538 10.4214 17.0036 11.1716C16.2535 11.9217 15.832 12.9391 15.832 14V17H12.832C12.5668 17 12.3125 17.1054 12.1249 17.2929C11.9374 17.4804 11.832 17.7348 11.832 18C11.832 18.2652 11.9374 18.5196 12.1249 18.7071C12.3125 18.8946 12.5668 19 12.832 19H15.832V26.9538C13.013 26.6964 10.4017 25.3622 8.54133 23.2287C6.68093 21.0952 5.71463 18.3266 5.84343 15.4988C5.97223 12.671 7.18622 10.0017 9.23288 8.04613C11.2795 6.09057 14.0013 4.9993 16.832 4.9993C19.6628 4.9993 22.3845 6.09057 24.4312 8.04613C26.4779 10.0017 27.6918 12.671 27.8206 15.4988C27.9494 18.3266 26.9831 21.0952 25.1227 23.2287C23.2623 25.3622 20.651 26.6964 17.832 26.9538Z" fill="#10100E"/>
</svg>
