<svg width="46" height="46" viewBox="0 0 46 46" fill="none" xmlns="http://www.w3.org/2000/svg">
<g clip-path="url(#clip0_29_429)">
<path fill-rule="evenodd" clip-rule="evenodd" d="M46 46H0V0H46V46ZM36.5134 19.4974V15.9297C35.9258 15.668 32.5611 14.7055 29.9029 15.7199C26.0737 17.1809 26.2113 21.5824 27.6643 23.3098C29.547 25.548 34.2303 26.3824 33.4639 28.5793C33.0671 29.7169 31.2144 29.9149 29.5811 29.533C28.06 29.1774 26.7375 28.2764 26.7375 28.2764V32.0539C26.7375 32.0539 28.0447 32.7827 29.6492 32.9561C31.7059 33.1783 34.2841 32.7587 35.5757 31.6107C37.8748 29.567 38.2279 25.0398 33.8709 22.9376C30.2453 21.1883 30.3049 20.689 30.3304 19.7918C30.3645 18.59 32.8877 17.8502 36.5134 19.4974ZM16.9616 9.48525C19.9783 9.59019 24.4116 10.9805 24.4116 16.909C24.4116 22.8376 18.9874 24.783 14.038 24.3591V32.7534H10.3509V9.56387C10.3509 9.56387 13.9448 9.38032 16.9616 9.48525ZM17.919 20.6865C19.5089 20.1064 20.5422 18.8593 20.5422 16.9221C20.5422 14.8682 19.4906 13.4773 17.8822 13.0844C16.1405 12.6588 14.0379 12.9096 14.0379 12.9096V20.9995C14.0379 20.9995 16.9484 21.0407 17.919 20.6865Z" fill="#EEEFE7"/>
</g>
<defs>
<clipPath id="clip0_29_429">
<rect width="46" height="46" fill="white"/>
</clipPath>
</defs>
</svg>
