<svg width="46" height="46" viewBox="0 0 46 46" fill="none" xmlns="http://www.w3.org/2000/svg">
<g clip-path="url(#clip0_29_431)">
<path fill-rule="evenodd" clip-rule="evenodd" d="M15.4575 9.70384H20.2493L27.1396 32.7884H22.9775L21.2637 26.2128H14.5482L12.7993 32.7885H9.12678L15.4576 10.7882L15.4575 9.70384ZM20.3192 22.8201L17.9408 13.0615L15.4925 22.82L20.3192 22.8201ZM34.2749 15.6326H30.4975V32.7885H34.2749V15.6326ZM32.3375 8.96739C31.1137 8.96739 30.1216 9.94804 30.1216 11.1578C30.1216 12.3675 31.1137 13.3483 32.3375 13.3483C33.5612 13.3483 34.5534 12.3676 34.5534 11.1579C34.5534 9.94813 33.5613 8.96739 32.3375 8.96739ZM46 46H0V0H46V46Z" fill="#FDFDFC"/>
</g>
<defs>
<clipPath id="clip0_29_431">
<rect width="46" height="46" fill="white"/>
</clipPath>
</defs>
</svg>
