<svg width="46" height="46" viewBox="0 0 46 46" fill="none" xmlns="http://www.w3.org/2000/svg">
<g id="Frame" clip-path="url(#clip0_201_1520)">
<path id="Vector" fill-rule="evenodd" clip-rule="evenodd" d="M11.8859 0.134766H34.3274C40.6761 0.134766 45.8227 5.28137 45.8227 11.63V34.0715C45.8227 40.4202 40.6761 45.5668 34.3274 45.5668H11.8859C5.53726 45.5668 0.390625 40.4202 0.390625 34.0715V11.63C0.390625 5.28137 5.53726 0.134766 11.8859 0.134766ZM21.8737 20.3753C24.2035 15.8903 27.1022 10.3101 34.9201 10.3101C35.5161 10.3101 36.0877 10.5467 36.5094 10.9678C36.9311 11.3889 37.1684 11.9602 37.1692 12.5562C37.1692 12.8514 37.1111 13.1437 36.9981 13.4164C36.885 13.6891 36.7192 13.9369 36.5103 14.1455C36.3014 14.3541 36.0534 14.5194 35.7805 14.6321C35.5077 14.7448 35.2153 14.8026 34.9201 14.8022C30.1723 14.8022 28.3287 17.6939 25.8581 22.4512L24.3389 25.3211L24.3365 25.3257C22.0066 29.8108 19.108 35.3908 11.287 35.3908C10.6916 35.39 10.1208 35.153 9.69974 34.732C9.27869 34.3109 9.04176 33.7402 9.04097 33.1448C9.04097 32.8498 9.09895 32.5577 9.21185 32.2852C9.32475 32.0127 9.49024 31.7651 9.69883 31.5566C9.90736 31.348 10.155 31.1826 10.4275 31.0697C10.7 30.9568 10.9921 30.8987 11.287 30.8987C16.038 30.8987 17.8815 28.007 20.3491 23.2498L21.8713 20.3798L21.8737 20.3753Z" fill="#F4F1E5"/>
</g>
<defs>
<clipPath id="clip0_201_1520">
<rect width="46" height="46" fill="white"/>
</clipPath>
</defs>
</svg>
