<svg width="48" height="49" viewBox="0 0 48 49" fill="none" xmlns="http://www.w3.org/2000/svg">
<rect x="12" y="9.54297" width="6" height="6" fill="#EBFF00"/>
<rect x="6" y="15.543" width="6" height="6" fill="#EBFF00"/>
<rect y="21.543" width="6" height="6" fill="#EBFF00"/>
<rect x="42" y="21.543" width="6" height="6" fill="#EBFF00"/>
<rect x="36" y="27.543" width="6" height="6" fill="#EBFF00"/>
<rect x="30" y="33.543" width="6" height="6" fill="#EBFF00"/>
<rect x="24" y="39.543" width="6" height="6" fill="#EBFF00"/>
<rect x="36" y="15.543" width="6" height="6" fill="#EBFF00"/>
<rect x="18" y="3.54297" width="6" height="6" fill="#EBFF00"/>
<rect x="16" y="48.543" width="6" height="6" transform="rotate(180 16 48.543)" fill="#EBFF00"/>
<rect x="19" y="42.543" width="6" height="6" transform="rotate(180 19 42.543)" fill="#EBFF00"/>
<rect x="22" y="36.543" width="6" height="6" transform="rotate(180 22 36.543)" fill="#EBFF00"/>
<rect x="25" y="30.543" width="6" height="6" transform="rotate(180 25 30.543)" fill="#EBFF00"/>
<rect x="28" y="24.543" width="6" height="6" transform="rotate(180 28 24.543)" fill="#EBFF00"/>
<rect x="31" y="18.543" width="6" height="6" transform="rotate(180 31 18.543)" fill="#EBFF00"/>
<rect x="28" y="6.54297" width="6" height="6" fill="#EBFF00"/>
<rect x="31" y="0.542969" width="6" height="6" fill="#EBFF00"/>
<rect x="6" y="27.543" width="6" height="6" fill="#EBFF00"/>
</svg>
