<svg width="33" height="32" viewBox="0 0 33 32" fill="none" xmlns="http://www.w3.org/2000/svg">
<path d="M27.832 3H5.83203C5.3016 3 4.79289 3.21071 4.41782 3.58579C4.04274 3.96086 3.83203 4.46957 3.83203 5V27C3.83203 27.5304 4.04274 28.0391 4.41782 28.4142C4.79289 28.7893 5.3016 29 5.83203 29H27.832C28.3625 29 28.8712 28.7893 29.2462 28.4142C29.6213 28.0391 29.832 27.5304 29.832 27V5C29.832 4.46957 29.6213 3.96086 29.2462 3.58579C28.8712 3.21071 28.3625 3 27.832 3ZM27.832 27H5.83203V5H27.832V27ZM12.832 14V22C12.832 22.2652 12.7267 22.5196 12.5391 22.7071C12.3516 22.8946 12.0972 23 11.832 23C11.5668 23 11.3125 22.8946 11.1249 22.7071C10.9374 22.5196 10.832 22.2652 10.832 22V14C10.832 13.7348 10.9374 13.4804 11.1249 13.2929C11.3125 13.1054 11.5668 13 11.832 13C12.0972 13 12.3516 13.1054 12.5391 13.2929C12.7267 13.4804 12.832 13.7348 12.832 14ZM23.832 17.5V22C23.832 22.2652 23.7267 22.5196 23.5391 22.7071C23.3516 22.8946 23.0972 23 22.832 23C22.5668 23 22.3125 22.8946 22.1249 22.7071C21.9374 22.5196 21.832 22.2652 21.832 22V17.5C21.832 16.837 21.5686 16.2011 21.0998 15.7322C20.631 15.2634 19.9951 15 19.332 15C18.669 15 18.0331 15.2634 17.5643 15.7322C17.0954 16.2011 16.832 16.837 16.832 17.5V22C16.832 22.2652 16.7267 22.5196 16.5391 22.7071C16.3516 22.8946 16.0972 23 15.832 23C15.5668 23 15.3125 22.8946 15.1249 22.7071C14.9374 22.5196 14.832 22.2652 14.832 22V14C14.8333 13.7551 14.9244 13.5191 15.088 13.3369C15.2517 13.1546 15.4766 13.0388 15.72 13.0114C15.9634 12.9839 16.2084 13.0468 16.4086 13.188C16.6087 13.3292 16.75 13.539 16.8058 13.7775C17.4823 13.3186 18.271 13.0526 19.0872 13.0081C19.9035 12.9637 20.7164 13.1424 21.4387 13.5251C22.1611 13.9078 22.7655 14.48 23.1872 15.1803C23.6088 15.8806 23.8318 16.6825 23.832 17.5ZM13.332 10.5C13.332 10.7967 13.2441 11.0867 13.0792 11.3334C12.9144 11.58 12.6801 11.7723 12.4061 11.8858C12.132 11.9994 11.8304 12.0291 11.5394 11.9712C11.2484 11.9133 10.9811 11.7704 10.7714 11.5607C10.5616 11.3509 10.4187 11.0836 10.3609 10.7926C10.303 10.5017 10.3327 10.2001 10.4462 9.92597C10.5597 9.65189 10.752 9.41762 10.9987 9.2528C11.2453 9.08797 11.5354 9 11.832 9C12.2299 9 12.6114 9.15804 12.8927 9.43934C13.174 9.72064 13.332 10.1022 13.332 10.5Z" fill="#21201C"/>
</svg>
