<svg width="48" height="49" viewBox="0 0 48 49" fill="none" xmlns="http://www.w3.org/2000/svg">
<rect x="24" y="3.54297" width="6" height="6" fill="#EBFF00"/>
<rect x="30" y="9.54297" width="6" height="6" fill="#EBFF00"/>
<rect x="42" y="21.543" width="6" height="6" fill="#EBFF00"/>
<rect x="36" y="15.543" width="6" height="6" fill="#EBFF00"/>
<rect x="30" y="33.543" width="6" height="6" fill="#EBFF00"/>
<rect x="36" y="27.543" width="6" height="6" fill="#EBFF00"/>
<rect x="24" y="39.543" width="6" height="6" fill="#EBFF00"/>
<rect x="18" y="0.542969" width="6" height="6" fill="#EBFF00"/>
<rect x="18" y="42.543" width="6" height="6" fill="#EBFF00"/>
<rect x="13" y="0.542969" width="6" height="6" fill="#EBFF00"/>
<rect x="12" y="42.543" width="6" height="6" fill="#EBFF00"/>
<rect x="7" y="0.542969" width="6" height="6" fill="#EBFF00"/>
<rect x="6" y="42.543" width="6" height="6" fill="#EBFF00"/>
<rect y="9.54297" width="6" height="6" fill="#EBFF00"/>
<rect y="21.543" width="6" height="6" fill="#EBFF00"/>
<rect y="33.543" width="6" height="6" fill="#EBFF00"/>
<rect x="6" y="9.54297" width="6" height="6" fill="#EBFF00"/>
<rect x="6" y="33.543" width="6" height="6" fill="#EBFF00"/>
<rect x="6" y="21.543" width="6" height="6" fill="#EBFF00"/>
<rect x="12" y="21.543" width="6" height="6" fill="#EBFF00"/>
<rect x="18" y="21.543" width="6" height="6" fill="#EBFF00"/>
</svg>
