<svg width="1169" height="286" viewBox="0 0 1169 286" fill="none" xmlns="http://www.w3.org/2000/svg">
<path d="M0 198V0.5H39.5V40H79V79.5H118.5V119H158V0.5H197.5V198H158V158.5H118.5V119H79V79.5H39.5V198H0Z" fill="black"/>
<path d="M268.6 40V0.5H387.1V40H268.6ZM229.1 158.5V40H268.6V158.5H229.1ZM347.6 158.5V119H308.1V79.5H387.1V158.5H347.6ZM268.6 198V158.5H347.6V198H268.6Z" fill="black"/>
<path d="M426.097 4.00001H488.497L465.697 132.8C462.897 148.4 461.297 161.6 461.297 170.8C461.297 187.2 467.697 194 480.897 194C496.897 194 513.297 184 532.497 152.8L541.297 138L564.897 4.00001H602.897L573.697 170C572.097 179.6 571.297 184.4 571.297 187.2C571.297 192 573.697 194.8 580.097 194.8H594.897L594.497 198H555.697C539.297 198 534.097 192.4 534.097 184.4C534.097 182 534.897 178.4 540.497 146.4L534.897 155.6C512.097 193.6 489.697 202 466.097 202C440.897 202 425.297 192 425.297 159.6C425.297 152 426.497 143.2 428.097 132.8L450.497 7.2H425.297L426.097 4.00001Z" fill="black"/>
<path d="M791.025 20.8C791.025 34.8 779.025 59.2 752.625 98L683.825 198L660.225 235.2C638.625 269.2 628.225 286 608.625 286C591.025 286 585.025 272 585.025 248.4H587.025C590.625 260.4 603.825 262.8 612.225 262.8C627.025 262.8 642.225 256.8 661.025 227.6L679.025 199.6L646.625 24C644.225 11.6 640.625 7.2 631.825 7.2H625.025L625.825 4.00001H664.225C677.425 4.00001 682.225 6.4 684.625 17.6L708.625 156.8L748.225 97.6C764.625 72.8 769.825 56 769.825 40C769.825 20 758.225 6.4 742.225 2.00001L743.025 0C772.625 0 791.025 3.20001 791.025 20.8Z" fill="black"/>
<path d="M892.844 193.6C919.244 193.6 938.044 171.6 941.244 150H944.844C940.844 176 916.844 202 874.444 202C832.044 202 803.244 175.6 803.244 123.6C803.244 54 844.844 0 905.244 0C946.044 0 964.844 14.8 964.844 38.4C964.844 76.8 922.844 95.6 871.644 95.6H856.844V92.8H871.244C912.444 92.8 930.844 65.6 930.844 32.4C930.844 16.4 925.244 3.20001 904.844 3.20001C861.244 3.20001 842.844 61.6 842.844 118.4C842.844 160.4 854.044 193.6 892.844 193.6Z" fill="black"/>
<path d="M1050.8 63.6L1027.2 198H989.2L1022.8 7.2H997.6L998.4 4.00001H1061.2L1052.4 54.8L1057.6 46.4C1080.4 8.4 1103.6 0 1127.2 0C1152.4 0 1168 10 1168 42.4C1168 50 1167.2 58.8 1165.2 69.2L1147.2 170C1145.6 180.4 1145.2 184.4 1145.2 187.2C1145.2 192 1147.2 194.8 1154 194.8H1168.8L1168.4 198H1129.2C1113.2 198 1108 192.4 1108 184.4C1108 182 1108.8 178.4 1109.6 173.6L1127.6 69.2C1130.4 53.6 1132 40.4 1132 31.2C1132 14.8 1125.6 8 1112.4 8C1096 8 1079.2 18 1060 49.2L1050.8 63.6Z" fill="black"/>
</svg>
