<svg width="1215" height="218" viewBox="0 0 1215 218" fill="none" xmlns="http://www.w3.org/2000/svg">
<path d="M1123.94 213.544L1058.69 20.6941L1014.03 203.974L1023.31 207.744L1046.51 208.904V213.544H982.418V208.904L998.658 207.744L1005.04 203.974L1052.89 12.2841L1031.43 8.80414V4.74414H1074.35L1138.73 195.854L1183.39 14.3141L1174.4 10.5441L1151.78 9.38413V4.74414H1215V9.38413L1199.05 10.5441L1192.67 14.3141L1142.79 213.544H1123.94Z" fill="black"/>
<path d="M807.719 213.544V208.904L823.959 207.744L830.339 203.974L877.609 14.3141L871.229 10.5441L855.279 9.38413V4.74414H997.089L996.799 8.80414L995.886 37.1414H990.666L981.429 11.9941H898.199L875.579 101.894H915.889L945.179 97.2541H950.109V114.654H945.179L915.889 109.724H873.839L849.479 206.294H940.784L960.034 181.984H964.674L955.329 213.544H807.719Z" fill="black"/>
<path d="M675.254 213.544V208.904L694.684 207.744L702.514 203.974L717.594 141.624L681.344 12.8641L666.844 8.80414V4.74414H734.704V9.38413L703.674 11.9941V17.7941L734.994 131.184H737.024L821.124 17.7941V11.9941L792.124 9.38413V4.74414H848.094V8.80414L833.884 12.8641L737.604 141.914L722.524 203.974L730.064 207.744L749.784 208.904V213.544H675.254Z" fill="black"/>
<path d="M508.64 217.894C484.57 217.894 467.17 210.354 456.73 194.984C446.58 179.614 444.84 158.444 451.51 132.054L481.09 14.3141L474.71 10.5441L458.76 9.38413V4.74414H530.39V9.38413L509.51 10.5441L501.39 14.3141L471.81 132.054C460.5 177.294 477.32 204.264 515.89 204.264C552.14 204.264 575.92 181.934 586.94 136.984L617.39 14.3141L609.85 10.5441L590.42 9.38413V4.74414H646.97V9.38413L632.47 10.5441L626.67 14.3141L596.22 136.404C582.59 190.634 553.3 217.894 508.64 217.894Z" fill="black"/>
<path d="M298.193 217.895C277.603 217.895 260.492 210.645 246.862 195.855C233.232 181.065 226.562 161.345 226.562 136.115C226.562 102.475 239.033 69.1245 259.913 43.6045C280.793 17.7945 314.142 0.394531 351.552 0.394531C376.202 0.394531 396.502 7.06453 412.452 20.1145L411.003 61.8745H404.622L403.462 52.3045C401.142 30.2645 384.902 15.4745 370.982 10.8345C364.022 8.51453 356.772 7.35453 349.232 7.35453C329.222 7.35453 311.532 13.7345 295.582 26.4945C279.922 38.6745 267.742 54.6245 259.332 74.0545C251.212 93.1945 247.152 113.205 247.152 133.795C247.152 156.125 252.373 173.815 263.103 187.445C273.833 201.075 288.042 207.745 306.022 207.745C326.612 207.745 347.203 197.015 367.793 175.555L378.522 128.865L366.342 125.095L335.022 123.935V119.295H417.092V123.355L398.533 127.415L377.073 213.545H372.142L372.432 178.455L371.272 179.615C348.072 205.135 323.713 217.895 298.193 217.895Z" fill="black"/>
<path d="M142.075 213.544L76.8247 20.6941L32.1647 203.974L41.4447 207.744L64.6447 208.904V213.544H0.554688V208.904L16.7947 207.744L23.1747 203.974L71.0247 12.2841L49.5647 8.80414V4.74414H92.4847L156.865 195.854L201.525 14.3141L192.535 10.5441L169.915 9.38413V4.74414H233.135V9.38413L217.185 10.5441L210.805 14.3141L160.925 213.544H142.075Z" fill="black"/>
</svg>
