<svg width="28" height="29" viewBox="0 0 28 29" fill="none" xmlns="http://www.w3.org/2000/svg">
<path d="M26.3667 28.5C23.1259 28.5 19.9241 27.7938 16.7611 26.3813C13.5981 24.9689 10.7204 22.9659 8.12778 20.3722C5.53519 17.7786 3.53267 14.9008 2.12022 11.7389C0.707778 8.57696 0.00103704 5.37511 0 2.13333C0 1.66667 0.155555 1.27778 0.466667 0.966667C0.777778 0.655555 1.16667 0.5 1.63333 0.5H7.93333C8.2963 0.5 8.62037 0.623407 8.90556 0.870222C9.19074 1.11704 9.35926 1.40844 9.41111 1.74444L10.4222 7.18889C10.4741 7.6037 10.4611 7.9537 10.3833 8.23889C10.3056 8.52407 10.163 8.77037 9.95555 8.97778L6.18333 12.7889C6.70185 13.7481 7.31733 14.6747 8.02978 15.5687C8.74222 16.4626 9.52674 17.3249 10.3833 18.1556C11.187 18.9593 12.0296 19.7049 12.9111 20.3924C13.7926 21.08 14.7259 21.7084 15.7111 22.2778L19.3667 18.6222C19.6 18.3889 19.9049 18.2141 20.2813 18.098C20.6578 17.9819 21.027 17.9492 21.3889 18L26.7556 19.0889C27.1185 19.1926 27.4167 19.3808 27.65 19.6536C27.8833 19.9263 28 20.2307 28 20.5667V26.8667C28 27.3333 27.8444 27.7222 27.5333 28.0333C27.2222 28.3444 26.8333 28.5 26.3667 28.5Z" fill="#10100E"/>
</svg>
