<svg width="28" height="28" viewBox="0 0 28 28" fill="none" xmlns="http://www.w3.org/2000/svg">
<path d="M26.3667 28C23.1259 28 19.9241 27.2938 16.7611 25.8813C13.5981 24.4689 10.7204 22.4659 8.12778 19.8722C5.53519 17.2786 3.53267 14.4008 2.12022 11.2389C0.707778 8.07696 0.00103704 4.87511 0 1.63333C0 1.16667 0.155555 0.777778 0.466667 0.466667C0.777778 0.155555 1.16667 0 1.63333 0H7.93333C8.2963 0 8.62037 0.123407 8.90556 0.370222C9.19074 0.617037 9.35926 0.908444 9.41111 1.24444L10.4222 6.68889C10.4741 7.1037 10.4611 7.4537 10.3833 7.73889C10.3056 8.02407 10.163 8.27037 9.95556 8.47778L6.18333 12.2889C6.70185 13.2481 7.31733 14.1747 8.02978 15.0687C8.74222 15.9626 9.52674 16.8249 10.3833 17.6556C11.187 18.4593 12.0296 19.2049 12.9111 19.8924C13.7926 20.58 14.7259 21.2084 15.7111 21.7778L19.3667 18.1222C19.6 17.8889 19.9049 17.7141 20.2813 17.598C20.6578 17.4819 21.027 17.4492 21.3889 17.5L26.7556 18.5889C27.1185 18.6926 27.4167 18.8808 27.65 19.1536C27.8833 19.4263 28 19.7307 28 20.0667V26.3667C28 26.8333 27.8444 27.2222 27.5333 27.5333C27.2222 27.8444 26.8333 28 26.3667 28Z" fill="#21201C"/>
</svg>
