<svg width="46" height="46" viewBox="0 0 46 46" fill="none" xmlns="http://www.w3.org/2000/svg">
<mask id="mask0_29_602" style="mask-type:luminance" maskUnits="userSpaceOnUse" x="0" y="0" width="46" height="46">
<path d="M1.71063 0.000549316C1.21783 0.000549316 0.766301 0.20841 0.45998 0.549044C0.183992 0.837464 0.0124319 1.22981 0 1.65648V1.76985C0.00547003 1.97225 0.0452521 2.1622 0.116362 2.33675C0.119346 2.35216 0.125811 2.3646 0.131281 2.38001C0.186975 2.51179 0.257091 2.63412 0.346104 2.748C0.376437 2.79126 0.410749 2.83104 0.447548 2.86734C0.453515 2.87679 0.462466 2.88574 0.471914 2.89519L5.92454 9.36872L7.89325 11.7054L13.788 18.7011L15.7567 21.0343L21.0342 27.3L22.9995 29.6332V46C23.1074 46 23.2118 45.997 23.3157 45.9881C24.3491 45.915 25.2815 45.4729 25.9836 44.7951C25.9871 44.7951 25.9871 44.7951 25.9871 44.7916L26.5664 44.1019L40.7224 27.3L45.5678 21.5465C45.5922 21.5221 45.6136 21.4943 45.6354 21.4669C45.7394 21.3381 45.8219 21.1934 45.8831 21.0343C45.9602 20.8443 45.9999 20.636 45.9999 20.4147V1.71167C45.9999 1.26064 45.8249 0.846415 45.537 0.54606C45.2272 0.20841 44.7821 0.000549316 44.2853 0.000549316H1.71063Z" fill="#EEEFE7"/>
</mask>
<g mask="url(#mask0_29_602)">
<path fill-rule="evenodd" clip-rule="evenodd" d="M1.71063 0.000549316C1.21783 0.000549316 0.766301 0.20841 0.45998 0.549044C0.183992 0.837464 0.0124319 1.22981 0 1.65648V1.76985C0.00547003 1.97225 0.0452521 2.1622 0.116362 2.33675C0.119346 2.35216 0.125811 2.3646 0.131281 2.38001C0.186975 2.51179 0.257091 2.63412 0.346104 2.748C0.376437 2.79126 0.410749 2.83104 0.447548 2.86734C0.453515 2.87679 0.462466 2.88574 0.471914 2.89519L5.92454 9.36872L7.89325 11.7054L13.788 18.7011L15.7567 21.0343L21.0342 27.3L22.9995 29.6332V46C23.1074 46 23.2118 45.997 23.3157 45.9881C24.3491 45.915 25.2815 45.4729 25.9836 44.7951C25.9871 44.7951 25.9871 44.7951 25.9871 44.7916L26.5664 44.1019L40.7224 27.3L45.5678 21.5465C45.5922 21.5221 45.6136 21.4943 45.6354 21.4669C45.7394 21.3381 45.8219 21.1934 45.8831 21.0343C45.9602 20.8443 45.9999 20.636 45.9999 20.4147V1.71167C45.9999 1.26064 45.8249 0.846415 45.537 0.54606C45.2272 0.20841 44.7821 0.000549316 44.2853 0.000549316H1.71063Z" fill="#EEEFE7"/>
</g>
<mask id="mask1_29_602" style="mask-type:luminance" maskUnits="userSpaceOnUse" x="0" y="0" width="46" height="46">
<path d="M1.71063 0.000549316C1.21783 0.000549316 0.766301 0.20841 0.45998 0.549044C0.183992 0.837464 0.0124319 1.22981 0 1.65648V1.76985C0.00547003 1.97225 0.0452521 2.1622 0.116362 2.33675C0.119346 2.35216 0.125811 2.3646 0.131281 2.38001C0.186975 2.51179 0.257091 2.63412 0.346104 2.748C0.376437 2.79126 0.410749 2.83104 0.447548 2.86734C0.453515 2.87679 0.462466 2.88574 0.471914 2.89519L5.92454 9.36872L7.89325 11.7054L13.788 18.7011L15.7567 21.0343L21.0342 27.3L22.9995 29.6332V46C23.1074 46 23.2118 45.997 23.3157 45.9881C24.3491 45.915 25.2815 45.4729 25.9836 44.7951C25.9871 44.7951 25.9871 44.7951 25.9871 44.7916L26.5664 44.1019L40.7224 27.3L45.5678 21.5465C45.5922 21.5221 45.6136 21.4943 45.6354 21.4669C45.7394 21.3381 45.8219 21.1934 45.8831 21.0343C45.9602 20.8443 45.9999 20.636 45.9999 20.4147V1.71167C45.9999 1.26064 45.8249 0.846415 45.537 0.54606C45.2272 0.20841 44.7821 0.000549316 44.2853 0.000549316H1.71063Z" fill="#EEEFE7"/>
</mask>
<g mask="url(#mask1_29_602)">
<path fill-rule="evenodd" clip-rule="evenodd" d="M1.71063 0.000549316C1.21783 0.000549316 0.766301 0.20841 0.45998 0.549044C0.183992 0.837464 0.0124319 1.22981 0 1.65648V1.76985C0.00547003 1.97225 0.0452521 2.1622 0.116362 2.33675C0.119346 2.35216 0.125811 2.3646 0.131281 2.38001C0.186975 2.51179 0.257091 2.63412 0.346104 2.748C0.376437 2.79126 0.410749 2.83104 0.447548 2.86734C0.453515 2.87679 0.462466 2.88574 0.471914 2.89519L5.92454 9.36872L7.89325 11.7054L13.788 18.7011L15.7567 21.0343L21.0342 27.3L22.9995 29.6332V46C23.1074 46 23.2118 45.997 23.3157 45.9881C24.3491 45.915 25.2815 45.4729 25.9836 44.7951C25.9871 44.7951 25.9871 44.7951 25.9871 44.7916L26.5664 44.1019L40.7224 27.3L45.5678 21.5465C45.5922 21.5221 45.6136 21.4943 45.6354 21.4669C45.7394 21.3381 45.8219 21.1934 45.8831 21.0343C45.9602 20.8443 45.9999 20.636 45.9999 20.4147V1.71167C45.9999 1.26064 45.8249 0.846415 45.537 0.54606C45.2272 0.20841 44.7821 0.000549316 44.2853 0.000549316H1.71063Z" fill="#EEEFE7"/>
</g>
<path fill-rule="evenodd" clip-rule="evenodd" d="M23 39.0024V46C21.8408 46 20.7891 45.5401 20.0158 44.7946C20.0128 44.7946 20.0128 44.7946 20.0128 44.7921L19.4335 44.1019L5.27758 27.3L0.45998 21.5803C0.447548 21.5744 0.438597 21.5619 0.432133 21.5495L0.355552 21.461C0.349585 21.4545 0.346104 21.4486 0.340634 21.4421C0.248141 21.3168 0.168577 21.1815 0.116363 21.0343C0.0457499 20.8598 0.0059673 20.6698 0 20.4734V20.357C0 20.3202 0.00298415 20.2829 0.00944873 20.2461C0.0427662 19.8603 0.208359 19.5161 0.45998 19.2466C0.769783 18.9125 1.21733 18.7011 1.71063 18.7011H5.89122L7.85695 21.0343L13.1345 27.3L21.7881 37.5702L22.997 39.0054L23 39.0024Z" fill="#EEEFE7"/>
<path fill-rule="evenodd" clip-rule="evenodd" d="M23 29.6347V39.0014L22.997 39.0044L21.7896 37.5698L13.136 27.3005L7.85745 21.0358L5.89122 18.7011L0.428154 12.2206C0.405279 12.1953 0.382405 12.1664 0.359531 12.1371C0.259081 12.0083 0.175539 11.8646 0.114871 11.706C0.046247 11.5309 0.0059673 11.341 0 11.1401V11.0247C0.0114373 10.5965 0.183992 10.2112 0.45998 9.91826C0.767794 9.57862 1.21584 9.36877 1.71063 9.36877H5.92553L7.89474 11.706L13.7889 18.7011L15.7552 21.0358L21.0337 27.3005L23 29.6347Z" fill="#EEEFE7"/>
</svg>
