<svg width="46" height="46" viewBox="0 0 46 46" fill="none" xmlns="http://www.w3.org/2000/svg">
<path d="M7.1875 7.66628C7.1875 5.63306 8.02038 3.68311 9.50293 2.2454C10.9855 0.807696 12.9962 0 15.0929 0H30.906C33.0029 0 35.014 0.807817 36.4967 2.24574C37.9795 3.68366 38.8125 5.6339 38.8125 7.66743C38.8125 9.70096 37.9795 11.6512 36.4967 13.0891C35.014 14.527 33.0029 15.3349 30.906 15.3349H23.0006V38.336C23.0001 39.8521 22.5361 41.3339 21.6673 42.5943C20.7985 43.8547 19.5638 44.8369 18.1194 45.4169C16.675 45.9968 15.0857 46.1485 13.5524 45.8526C12.0191 45.5567 10.6107 44.8266 9.5053 43.7546C8.39986 42.6826 7.64699 41.3168 7.34189 39.8299C7.03678 38.343 7.19313 36.8018 7.79118 35.401C8.38922 34.0003 9.4021 32.8029 10.7018 31.9604C12.0014 31.1178 13.5295 30.6679 15.0929 30.6674C12.9962 30.6674 10.9855 29.8597 9.50293 28.422C8.02038 26.9843 7.1875 25.0344 7.1875 23.0011C7.1875 20.9679 8.02038 19.018 9.50293 17.5803C10.9855 16.1426 12.9962 15.3349 15.0929 15.3349C14.0545 15.3349 13.0263 15.1365 12.0671 14.7511C11.1078 14.3657 10.2362 13.8008 9.50209 13.0887C8.76798 12.3765 8.18572 11.5311 7.78858 10.6007C7.39144 9.67037 7.18719 8.67323 7.1875 7.66628ZM23.0006 23.0011C23.0006 25.0344 23.8335 26.9843 25.316 28.422C26.7986 29.8597 28.8093 30.6674 30.906 30.6674C33.0026 30.6674 35.0133 29.8597 36.4959 28.422C37.9784 26.9843 38.8113 25.0344 38.8113 23.0011C38.8113 20.9679 37.9784 19.018 36.4959 17.5803C35.0133 16.1426 33.0026 15.3349 30.906 15.3349C28.8093 15.3349 26.7986 16.1426 25.316 17.5803C23.8335 19.018 23.0006 20.9679 23.0006 23.0011Z" fill="#EEEFE7"/>
</svg>
