<svg width="13" height="107" viewBox="0 0 13 107" fill="none" xmlns="http://www.w3.org/2000/svg">
<path d="M11.4248 2.41008L11.4248 2.21808L0.800781 2.21808L0.800781 0.874077L12.0008 0.874076L12.0008 3.56208L1.37678 6.79407L1.37678 6.98608L12.0008 6.98608L12.0008 8.33008L0.800781 8.33008L0.800781 5.64207L11.4248 2.41008Z" fill="black"/>
<path d="M12.0008 10.8147L12.0008 13.2627L1.37678 14.3027L1.37678 14.4947L12.0008 15.5347L12.0008 17.9827L0.800781 19.1187L0.800781 17.9027L11.4248 16.8307L11.4248 16.6387L0.800781 15.6307L0.800781 13.1667L11.4248 12.1587L11.4248 11.9667L0.800781 10.8947L0.800781 9.67866L12.0008 10.8147Z" fill="black"/>
<path d="M5.15022 28.1318C3.69955 28.1318 2.57422 27.7852 1.77422 27.0918C0.974219 26.3985 0.574219 25.4332 0.574219 24.1958C0.574219 22.9585 0.974218 21.9932 1.77422 21.2998C2.57422 20.6065 3.69955 20.2598 5.15022 20.2598L7.64622 20.2598C9.13955 20.2598 10.2756 20.6065 11.0542 21.2998C11.8329 21.9932 12.2222 22.9585 12.2222 24.1958C12.2222 25.4332 11.8329 26.3985 11.0542 27.0918C10.2756 27.7852 9.13955 28.1318 7.64622 28.1318L5.15022 28.1318ZM10.9742 24.1958C10.9742 23.3318 10.6809 22.6865 10.0942 22.2598C9.49689 21.8225 8.64889 21.6038 7.55022 21.6038L5.24622 21.6038C4.22222 21.6038 3.39555 21.8225 2.76622 22.2598C2.13689 22.6865 1.82222 23.3318 1.82222 24.1958C1.82222 25.0598 2.13689 25.7105 2.76622 26.1478C3.39555 26.5745 4.22222 26.7878 5.24622 26.7878L7.55022 26.7878C8.64889 26.7878 9.49689 26.5745 10.0942 26.1478C10.6809 25.7105 10.9742 25.0598 10.9742 24.1958Z" fill="black"/>
<path d="M0.800781 37.7207L0.800781 34.0407C0.800781 32.654 1.13145 31.6407 1.79278 31.0007C2.45411 30.3607 3.51011 30.0407 4.96078 30.0407L7.84078 30.0407C9.29145 30.0407 10.3474 30.3607 11.0088 31.0007C11.6701 31.6407 12.0008 32.654 12.0008 34.0407L12.0008 37.7207L10.7368 37.7207L10.7368 36.7607L2.04878 36.7607L2.04878 37.7207L0.800781 37.7207ZM10.7528 34.2327C10.7528 33.742 10.7048 33.3207 10.6088 32.9687C10.5128 32.606 10.3528 32.3074 10.1288 32.0727C9.89412 31.838 9.58478 31.6674 9.20078 31.5607C8.81678 31.4434 8.33145 31.3847 7.74478 31.3847L5.05678 31.3847C4.47011 31.3847 3.98478 31.4434 3.60078 31.5607C3.21678 31.6674 2.91278 31.838 2.68878 32.0727C2.45411 32.3074 2.28878 32.606 2.19278 32.9687C2.09678 33.3207 2.04878 33.742 2.04878 34.2327L2.04878 35.4167L10.7528 35.4167L10.7528 34.2327Z" fill="black"/>
<path d="M0.800781 57.0903L0.800781 55.7463L10.7528 55.7463L10.7528 49.8903L12.0008 49.8903L12.0008 57.0903L0.800781 57.0903Z" fill="black"/>
<path d="M0.800781 66.8872L0.800781 65.5432L10.7528 65.5432L10.7528 59.6872L12.0008 59.6872L12.0008 66.8872L0.800781 66.8872Z" fill="black"/>
<path d="M5.15022 77.1162C3.69955 77.1162 2.57422 76.7695 1.77422 76.0762C0.974219 75.3829 0.574219 74.4175 0.574219 73.1802C0.574219 71.9429 0.974218 70.9775 1.77422 70.2842C2.57422 69.5909 3.69955 69.2442 5.15022 69.2442L7.64622 69.2442C9.13955 69.2442 10.2756 69.5909 11.0542 70.2842C11.8329 70.9775 12.2222 71.9429 12.2222 73.1802C12.2222 74.4175 11.8329 75.3829 11.0542 76.0762C10.2756 76.7695 9.13955 77.1162 7.64622 77.1162L5.15022 77.1162ZM10.9742 73.1802C10.9742 72.3162 10.6809 71.6709 10.0942 71.2442C9.49689 70.8069 8.64889 70.5882 7.55022 70.5882L5.24622 70.5882C4.22222 70.5882 3.39555 70.8069 2.76622 71.2442C2.13689 71.6709 1.82222 72.3162 1.82222 73.1802C1.82222 74.0442 2.13689 74.6949 2.76622 75.1322C3.39555 75.5589 4.22222 75.7722 5.24622 75.7722L7.55022 75.7722C8.64889 75.7722 9.49689 75.5589 10.0942 75.1322C10.6809 74.6949 10.9742 74.0442 10.9742 73.1802Z" fill="black"/>
<path d="M12.0008 79.4732L12.0008 80.8172L8.25678 80.8172C7.97945 80.8172 7.76611 80.8812 7.61678 81.0092C7.46745 81.1372 7.39278 81.3612 7.39278 81.6812L7.39278 85.1692L12.0008 85.1692L12.0008 86.5132L0.800781 86.5132L0.800781 82.5132C0.800781 81.9372 0.886115 81.4359 1.05678 81.0092C1.21678 80.5825 1.43545 80.2305 1.71278 79.9532C1.99011 79.6652 2.31545 79.4518 2.68878 79.3132C3.05145 79.1638 3.43545 79.0892 3.84078 79.0892L4.32078 79.0892C4.73678 79.0892 5.15278 79.2065 5.56878 79.4412C5.98478 79.6652 6.30478 80.0172 6.52878 80.4972L6.72078 80.4972C6.77411 80.1772 6.90211 79.9265 7.10478 79.7452C7.30745 79.5639 7.59545 79.4732 7.96878 79.4732L12.0008 79.4732ZM6.14478 85.1692L6.14478 82.6732C6.14478 81.9158 5.98478 81.3558 5.66478 80.9932C5.33411 80.6198 4.85411 80.4332 4.22478 80.4332L3.93678 80.4332C3.37145 80.4332 2.91811 80.6198 2.57678 80.9932C2.22478 81.3558 2.04878 81.9158 2.04878 82.6732L2.04878 85.1692L6.14478 85.1692Z" fill="black"/>
<path d="M10.9742 92.71C10.9742 92.2513 10.8996 91.862 10.7502 91.542C10.5902 91.2113 10.3822 90.9447 10.1262 90.742C9.85955 90.5287 9.56089 90.374 9.23022 90.278C8.88889 90.1713 8.53155 90.118 8.15822 90.118L7.96622 90.118L7.96622 88.774L8.15822 88.774C8.72355 88.774 9.25689 88.8593 9.75822 89.03C10.2489 89.2007 10.6809 89.4513 11.0542 89.782C11.4169 90.1127 11.7049 90.5233 11.9182 91.014C12.1209 91.5047 12.2222 92.07 12.2222 92.71C12.2222 93.9473 11.8329 94.9127 11.0542 95.606C10.2756 96.2993 9.13955 96.646 7.64622 96.646L5.15022 96.646C3.69955 96.646 2.57422 96.2993 1.77422 95.606C0.974219 94.9127 0.574219 93.9473 0.574219 92.71C0.574219 92.07 0.680885 91.5047 0.894219 91.014C1.09689 90.5233 1.38489 90.1127 1.75822 89.782C2.12089 89.4513 2.55289 89.2007 3.05422 89.03C3.54489 88.8593 4.07289 88.774 4.63822 88.774L4.83022 88.774L4.83022 90.118L4.63822 90.118C4.27555 90.1287 3.92355 90.1873 3.58222 90.294C3.24089 90.39 2.94222 90.5447 2.68622 90.758C2.41955 90.9607 2.21155 91.222 2.06222 91.542C1.90222 91.862 1.82222 92.2513 1.82222 92.71C1.82222 93.574 2.13689 94.2247 2.76622 94.662C3.39555 95.0887 4.22222 95.302 5.24622 95.302L7.55022 95.302C8.64889 95.302 9.49689 95.0887 10.0942 94.662C10.6809 94.2247 10.9742 93.574 10.9742 92.71Z" fill="black"/>
<path d="M4.03022 99.9306C3.66755 99.9306 3.34755 100.005 3.07022 100.155C2.79289 100.293 2.56355 100.485 2.38222 100.731C2.20089 100.976 2.06222 101.259 1.96622 101.579C1.87022 101.899 1.82222 102.235 1.82222 102.587C1.82222 102.896 1.86489 103.189 1.95022 103.467C2.02489 103.744 2.13689 103.995 2.28622 104.219C2.43555 104.432 2.62222 104.603 2.84622 104.731C3.05955 104.859 3.31022 104.923 3.59822 104.923L3.69422 104.923C4.00355 104.923 4.27022 104.859 4.49422 104.731C4.70755 104.603 4.89422 104.416 5.05422 104.171C5.20355 103.915 5.33155 103.6 5.43822 103.227C5.53422 102.853 5.61955 102.416 5.69422 101.915C5.87555 100.741 6.22222 99.8772 6.73422 99.3226C7.23555 98.7679 7.91289 98.4906 8.76622 98.4906L8.95822 98.4906C9.43822 98.4906 9.88089 98.5759 10.2862 98.7466C10.6809 98.9066 11.0222 99.1519 11.3102 99.4826C11.5982 99.8026 11.8222 100.203 11.9822 100.683C12.1422 101.163 12.2222 101.717 12.2222 102.347C12.2222 103.061 12.1209 103.696 11.9182 104.251C11.7049 104.795 11.4169 105.253 11.0542 105.627C10.6809 105.989 10.2489 106.267 9.75822 106.459C9.25689 106.651 8.71289 106.747 8.12622 106.747L7.64622 106.747L7.64622 105.403L8.03022 105.403C9.01155 105.403 9.74755 105.136 10.2382 104.603C10.7289 104.059 10.9742 103.307 10.9742 102.347C10.9742 101.515 10.7929 100.891 10.4302 100.475C10.0569 100.048 9.56622 99.8346 8.95822 99.8346L8.86222 99.8346C8.27555 99.8346 7.82755 100.053 7.51822 100.491C7.20889 100.917 6.98489 101.616 6.84622 102.587C6.77155 103.152 6.65955 103.664 6.51022 104.123C6.35022 104.571 6.14755 104.955 5.90222 105.275C5.64622 105.595 5.34222 105.84 4.99022 106.011C4.63822 106.181 4.22222 106.267 3.74222 106.267L3.55022 106.267C3.11289 106.267 2.71289 106.176 2.35022 105.995C1.98755 105.813 1.67289 105.563 1.40622 105.243C1.13955 104.912 0.936885 104.523 0.798219 104.075C0.648885 103.616 0.574219 103.115 0.574219 102.571C0.574219 101.941 0.664885 101.381 0.846219 100.891C1.02755 100.389 1.27289 99.9679 1.58222 99.6266C1.88089 99.2852 2.23822 99.0292 2.65422 98.8586C3.05955 98.6772 3.48622 98.5866 3.93422 98.5866L4.60622 98.5866L4.60622 99.9306L4.03022 99.9306Z" fill="black"/>
</svg>
