<svg width="48" height="49" viewBox="0 0 48 49" fill="none" xmlns="http://www.w3.org/2000/svg">
<rect y="42.543" width="6" height="6" fill="#EBFF00"/>
<rect y="36.543" width="6" height="6" fill="#EBFF00"/>
<rect x="6" y="42.543" width="6" height="6" fill="#EBFF00"/>
<rect x="12" y="42.543" width="6" height="6" fill="#EBFF00"/>
<rect y="30.543" width="6" height="6" fill="#EBFF00"/>
<rect x="6" y="24.543" width="6" height="6" fill="#EBFF00"/>
<rect x="12" y="18.543" width="6" height="6" fill="#EBFF00"/>
<rect x="18" y="12.543" width="6" height="6" fill="#EBFF00"/>
<rect x="24" y="6.54297" width="6" height="6" fill="#EBFF00"/>
<rect x="30" y="12.543" width="6" height="6" fill="#EBFF00"/>
<rect x="30" y="0.542969" width="6" height="6" fill="#EBFF00"/>
<rect x="36" y="6.54297" width="6" height="6" fill="#EBFF00"/>
<rect x="42" y="12.543" width="6" height="6" fill="#EBFF00"/>
<rect x="36" y="18.543" width="6" height="6" fill="#EBFF00"/>
<rect x="30" y="24.543" width="6" height="6" fill="#EBFF00"/>
<rect x="24" y="30.543" width="6" height="6" fill="#EBFF00"/>
<rect x="12" y="30.543" width="6" height="6" fill="#EBFF00"/>
<rect x="18" y="36.543" width="6" height="6" fill="#EBFF00"/>
</svg>
