<svg width="48" height="49" viewBox="0 0 48 49" fill="none" xmlns="http://www.w3.org/2000/svg">
<rect y="21.5425" width="6" height="6" fill="#EBFF00"/>
<rect x="6" y="27.5425" width="6" height="6" fill="#EBFF00"/>
<rect x="6" y="15.5425" width="6" height="6" fill="#EBFF00"/>
<rect x="24" y="6.54248" width="6" height="6" fill="#EBFF00"/>
<rect x="24" y="36.5425" width="6" height="6" fill="#EBFF00"/>
<rect x="12" y="15.5425" width="6" height="6" fill="#EBFF00"/>
<rect x="18" y="21.5425" width="6" height="6" fill="#EBFF00"/>
<rect x="12" y="27.5425" width="6" height="6" fill="#EBFF00"/>
<rect x="42" y="6.54248" width="6" height="6" fill="#EBFF00"/>
<rect x="42" y="36.5425" width="6" height="6" fill="#EBFF00"/>
<rect x="36" y="0.54248" width="6" height="6" fill="#EBFF00"/>
<rect x="36" y="30.5425" width="6" height="6" fill="#EBFF00"/>
<rect x="30" y="0.54248" width="6" height="6" fill="#EBFF00"/>
<rect x="30" y="30.5425" width="6" height="6" fill="#EBFF00"/>
<rect x="30" y="12.5425" width="6" height="6" fill="#EBFF00"/>
<rect x="30" y="42.5425" width="6" height="6" fill="#EBFF00"/>
<rect x="36" y="12.5425" width="6" height="6" fill="#EBFF00"/>
<rect x="36" y="42.5425" width="6" height="6" fill="#EBFF00"/>
</svg>
